# xmcd CD database file generated by OrangeCD 6.4
#
# Track frame offsets:
#	150
#	17264
#	35306
#	52476
#	70248
#	94190
#	109782
#	132990
#	151877
#	170345
#	187641
#	204449
#	218862
#	235370
#
# Disc length: 3379 seconds
#
# Revision: 0
# Processed by: cddbd v1.5.2PL0 Copyright (c) Steve Scherf et al.
# Submitted via: OrangeCD 6.4
#
DISCID=b90d310e
DTITLE=Legal Tender - Rural Delivery, RD1
DYEAR=1900
DGENRE=Country
TTITLE0=Proud to be a Kiwi
TTITLE1=Value The Children
TTITLE2=Baton Rouge
TTITLE3=Sweet Tequila Blues
TTITLE4=Miss Ohio
TTITLE5=Centennial Highway
TTITLE6=When I Fall
TTITLE7=Atlanta
TTITLE8=On The Borderline
TTITLE9=Foreign Border
TTITLE10=Leavin' Now
TTITLE11=Long Time Coming
TTITLE12=Last Thing I Expected
TTITLE13=It's Not Closing Time
EXTD=
EXTT0=
EXTT1=
EXTT2=
EXTT3=
EXTT4=
EXTT5=
EXTT6=
EXTT7=
EXTT8=
EXTT9=
EXTT10=
EXTT11=
EXTT12=
EXTT13=
PLAYORDER=
